<?xml version="1.0" encoding="utf-8"?>
<!-- Generator: Adobe Illustrator 23.0.1, SVG Export Plug-In . SVG Version: 6.00 Build 0)  -->
<svg version="1.1" id="Layer_1" xmlns="http://www.w3.org/2000/svg" xmlns:xlink="http://www.w3.org/1999/xlink" x="0px" y="0px"
	 viewBox="0 0 120.56 126.53" style="enable-background:new 0 0 120.56 126.53;" xml:space="preserve">
<style type="text/css">
	.st0{fill:#386F94;}
	.st1{fill:none;stroke:#000000;stroke-width:2;stroke-linecap:round;stroke-linejoin:round;stroke-miterlimit:10;}
	.st2{fill:#3EC1C8;}
	.st3{fill:#F5A620;}
	.st4{fill:#C0D351;}
</style>
<path class="st0" d="M80.4,28.19c0-8.16-14.2-14.31-33.04-14.31s-33.04,6.15-33.04,14.31c0,0.27,0.02,0.55,0.05,0.82
	c-0.04,0.16-0.05,0.31-0.05,0.46v50.12c0,0.43,0.12,0.85,0.36,1.22c2.3,7.13,15.72,12.1,32.68,12.1c3.58,0,7.09-0.23,10.43-0.69
	c0.6-0.08,1.13-0.39,1.5-0.87c0.37-0.48,0.52-1.07,0.44-1.67c-0.08-0.6-0.39-1.13-0.87-1.49c-0.48-0.37-1.08-0.52-1.67-0.44
	c-3.15,0.43-6.45,0.65-9.82,0.65c-17.67,0-28.52-5.7-28.52-9.79v-7.05c5.77,4.29,16.31,6.83,28.52,6.83c3.11,0,6.19-0.18,9.15-0.52
	c1.24-0.15,2.13-1.27,1.98-2.51c-0.07-0.61-0.38-1.15-0.86-1.53c-0.47-0.37-1.06-0.53-1.65-0.45c-2.78,0.33-5.68,0.49-8.62,0.49
	c-17.67,0-28.52-5.7-28.52-9.79v-4.57c5.77,4.29,16.31,6.83,28.52,6.83c12.33,0,22.96-2.59,28.69-6.96
	c0.34,0.82,1.15,1.39,2.09,1.39c1.25,0,2.26-1.01,2.26-2.26V29.47c0-0.15-0.02-0.3-0.05-0.46C80.38,28.74,80.4,28.47,80.4,28.19z
	 M68.1,34.69c-5.52,2.12-12.89,3.29-20.74,3.29c-17.67,0-28.52-5.7-28.52-9.79c0-2.2,2.91-4.63,7.78-6.5
	c5.52-2.12,12.89-3.29,20.74-3.29c17.67,0,28.52,5.7,28.52,9.79C75.88,30.39,72.97,32.82,68.1,34.69z M68.1,46.74
	c-5.52,2.12-12.89,3.29-20.74,3.29c-17.67,0-28.52-5.7-28.52-9.79v-4.57c5.77,4.29,16.31,6.83,28.52,6.83
	c12.21,0,22.75-2.54,28.52-6.83v4.57C75.88,42.44,72.97,44.87,68.1,46.74z M75.88,47.71v4.32c0,2.2-2.91,4.63-7.78,6.5
	c-5.52,2.12-12.89,3.29-20.74,3.29c-17.67,0-28.52-5.7-28.52-9.79v-4.32c5.77,4.29,16.31,6.83,28.52,6.83S70.11,52.01,75.88,47.71z"
	/>
<path class="st1" d="M78.02,66.61"/>
<path class="st0" d="M97.34,45.73h-9.03l3.17-1.99c0.82-0.52,1.07-1.6,0.56-2.43c-0.52-0.82-1.6-1.07-2.43-0.56L81.26,46
	c-0.01,0-0.01,0.01-0.02,0.02c-0.02,0.01-0.03,0.02-0.05,0.03c-0.02,0.02-0.04,0.04-0.07,0.05c-0.02,0.02-0.04,0.03-0.06,0.05
	c-0.03,0.03-0.07,0.05-0.1,0.09c-0.01,0.01-0.02,0.02-0.03,0.03c-0.02,0.02-0.04,0.05-0.06,0.08c-0.01,0.01-0.02,0.02-0.03,0.03
	c-0.03,0.04-0.07,0.08-0.1,0.12c-0.01,0.01-0.02,0.03-0.03,0.04c0,0.01-0.01,0.01-0.01,0.02c-0.02,0.03-0.03,0.06-0.04,0.09
	c0,0.01-0.01,0.01-0.01,0.02c-0.02,0.04-0.05,0.09-0.07,0.13c-0.01,0.02-0.01,0.04-0.02,0.06c-0.02,0.04-0.03,0.09-0.04,0.14
	c-0.01,0.04-0.03,0.09-0.04,0.13c0,0.02-0.01,0.04-0.01,0.06c-0.01,0.05-0.01,0.1-0.02,0.15c0,0.05-0.01,0.09-0.01,0.14
	c0,0.01,0,0.02,0,0.03s0,0.02,0,0.03c0,0.05,0.01,0.09,0.01,0.14c0,0.05,0.01,0.1,0.02,0.15c0,0.02,0.01,0.04,0.01,0.06
	c0.01,0.04,0.03,0.09,0.04,0.13c0.01,0.05,0.02,0.09,0.04,0.14c0.01,0.02,0.01,0.04,0.02,0.06c0.02,0.05,0.05,0.09,0.07,0.13
	c0,0.01,0.01,0.01,0.01,0.02c0.02,0.03,0.03,0.06,0.04,0.09c0,0.01,0.01,0.01,0.01,0.01c0.01,0.02,0.02,0.03,0.03,0.05
	c0.03,0.04,0.06,0.08,0.1,0.12c0.04,0.05,0.08,0.1,0.12,0.14c0.01,0.01,0.02,0.02,0.02,0.02c0.02,0.02,0.04,0.03,0.05,0.04
	c0.01,0.01,0.02,0.01,0.03,0.02c0.05,0.05,0.11,0.09,0.17,0.13c0.01,0,0.01,0.01,0.02,0.02l8.35,5.24c0.29,0.18,0.61,0.27,0.93,0.27
	c0.59,0,1.16-0.29,1.49-0.83c0.52-0.82,0.27-1.91-0.56-2.43l-3.17-1.99h7.27v17.56c0,0.97,0.79,1.76,1.76,1.76s1.76-0.79,1.76-1.76
	V47.49C99.1,46.52,98.31,45.73,97.34,45.73z"/>
<path class="st0" d="M61.05,101.94c0.01-0.02,0.01-0.04,0.02-0.06c0.02-0.05,0.03-0.09,0.04-0.14c0.01-0.04,0.03-0.08,0.04-0.13
	c0-0.02,0.01-0.04,0.01-0.06c0.01-0.05,0.01-0.1,0.02-0.15c0-0.05,0.01-0.09,0.01-0.14c0-0.01,0-0.02,0-0.03c0-0.01,0-0.02,0-0.03
	c0-0.05-0.01-0.09-0.01-0.14c0-0.05-0.01-0.1-0.02-0.15c0-0.02-0.01-0.04-0.01-0.06c-0.01-0.04-0.03-0.08-0.04-0.13
	c-0.01-0.05-0.03-0.1-0.04-0.14c-0.01-0.02-0.01-0.04-0.02-0.06c-0.02-0.05-0.05-0.09-0.07-0.13c0,0,0-0.01,0-0.01
	c-0.02-0.03-0.03-0.06-0.05-0.1c0-0.01-0.01-0.01-0.01-0.02c-0.01-0.01-0.02-0.03-0.03-0.04c-0.03-0.04-0.06-0.08-0.1-0.12
	c0-0.01-0.01-0.01-0.01-0.02c-0.03-0.03-0.05-0.07-0.08-0.1c-0.01-0.01-0.02-0.02-0.03-0.03c-0.03-0.03-0.07-0.06-0.1-0.09
	c-0.01,0-0.01-0.01-0.02-0.01c-0.04-0.03-0.07-0.07-0.11-0.09c-0.01-0.01-0.03-0.02-0.04-0.03c-0.01,0-0.01-0.01-0.02-0.02
	l-8.35-5.24c-0.82-0.51-1.91-0.27-2.43,0.56c-0.52,0.82-0.27,1.91,0.56,2.43l3.17,1.99h-7.27v-8.83c0-0.97-0.79-1.76-1.76-1.76
	c-0.97,0-1.76,0.79-1.76,1.76v10.59c0,0.97,0.79,1.76,1.76,1.76h9.03l-3.17,1.99c-0.82,0.52-1.07,1.6-0.56,2.43
	c0.33,0.53,0.91,0.82,1.49,0.82c0.32,0,0.64-0.09,0.93-0.27l8.35-5.24c0.01,0,0.01-0.01,0.02-0.02c0.06-0.04,0.12-0.09,0.17-0.13
	c0.01-0.01,0.02-0.01,0.02-0.02c0.02-0.02,0.04-0.03,0.05-0.04c0.01-0.01,0.02-0.02,0.02-0.02c0.05-0.05,0.09-0.1,0.13-0.15
	c0.03-0.04,0.07-0.07,0.09-0.11c0.01-0.02,0.02-0.03,0.03-0.05c0-0.01,0.01-0.01,0.01-0.01c0.02-0.03,0.03-0.06,0.04-0.09
	c0-0.01,0.01-0.02,0.01-0.02C61,102.02,61.03,101.99,61.05,101.94z"/>
<g>
	<path class="st2" d="M107.59,82.03c0-0.58-0.13-0.99-0.41-1.25c-0.44-0.42-1.18-0.43-1.22-0.43c0,0,0,0,0,0l-14.95,0l-3.16,6.66
		c-0.21,0.44-0.65,0.72-1.13,0.72H76.47c-0.14-0.01-0.73-0.05-1.21,0.4c-0.51,0.48-0.78,1.4-0.78,2.66v11.5
		c0,0.68-0.1,1.27-0.27,1.81h26.96v0.04h5.43c0.28,0,0.4-0.09,0.49-0.18c0.43-0.45,0.53-1.57,0.51-2.04L107.59,82.03z"/>
	<path class="st3" d="M76.61,85.22l9.31-0.01l3.16-6.66c0.21-0.44,0.65-0.72,1.13-0.72h12.37v-2.56c0-0.79-0.64-1.43-1.43-1.43H68.9
		c-0.79,0-1.43,0.64-1.43,1.43v27.39c0,0.79,0.64,1.43,1.43,1.43h2.26c0.11-0.03,0.23-0.07,0.33-0.15c0.3-0.25,0.47-0.84,0.47-1.65
		v-11.5c0-2.05,0.55-3.58,1.65-4.56C74.91,85.06,76.44,85.21,76.61,85.22z"/>
	<path class="st0" d="M110.1,82.03c0-1.59-0.64-2.55-1.18-3.06c-1.22-1.17-2.87-1.13-3.01-1.13h-0.81v-2.56
		c0-2.17-1.77-3.94-3.94-3.94H68.9c-2.17,0-3.94,1.77-3.94,3.94v27.39c0,2.17,1.77,3.94,3.94,3.94h1.42
		c0.13,0.02,0.3,0.04,0.54,0.04c0.16,0,0.34-0.01,0.53-0.04h27.95c0.07,0.01,0.13,0.04,0.2,0.04h7.06c0.91,0,1.71-0.34,2.31-0.97
		c1.28-1.36,1.2-3.64,1.19-3.83V82.03z M71.96,90.78v11.5c0,0.81-0.17,1.4-0.47,1.65c-0.1,0.08-0.22,0.13-0.33,0.15H68.9
		c-0.79,0-1.43-0.64-1.43-1.43V75.27c0-0.79,0.64-1.43,1.43-1.43h32.27c0.79,0,1.43,0.64,1.43,1.43v2.56H90.22
		c-0.48,0-0.93,0.28-1.13,0.72l-3.16,6.66l-9.31,0.01c-0.17-0.02-1.7-0.16-3,1C72.52,87.2,71.96,88.73,71.96,90.78z M107.09,103.95
		c-0.09,0.1-0.21,0.18-0.49,0.18h-5.43v-0.04H74.21c0.16-0.53,0.27-1.12,0.27-1.81v-11.5c0-1.27,0.27-2.19,0.78-2.66
		c0.48-0.44,1.07-0.41,1.21-0.4h10.25c0.48,0,0.93-0.28,1.13-0.72l3.16-6.66l14.95,0c0,0,0,0,0,0c0.04,0,0.78,0.01,1.22,0.43
		c0.28,0.27,0.41,0.68,0.41,1.25l0,19.88C107.62,102.38,107.52,103.5,107.09,103.95z"/>
</g>
<path class="st4" d="M47.36,62.32c-17.1,0-29.02-5.42-29.02-10.29v-5.35c5.28,4.45,16.03,7.36,29.02,7.36
	c12.99,0,23.74-2.91,29.02-7.36v5.35C76.38,56.9,64.46,62.32,47.36,62.32z"/>
</svg>
